<?xml version="1.0" encoding="UTF-8"?>
<svg id="Camada_1" xmlns="http://www.w3.org/2000/svg" version="1.1" viewBox="0 0 64 64">
  <!-- Generator: Adobe Illustrator 29.8.4, SVG Export Plug-In . SVG Version: 2.1.1 Build 6)  -->
  <defs>
    <style>
      .st0 {
        fill: #1a6951;
      }

      .st1 {
        fill: #ff7427;
      }
    </style>
  </defs>
  <path class="st0" d="M31.7,32c-.2.2-.2,2.5-.7,3.2l-7.3,7.5c0,.8,2,2.9,2.8,3.2.7,0,3-2.2,3.6-2.9,5.6-6.4,7.9-18.9,7-27.2-.5-5-2.2-10.4-5.3-14.4l-1.6,5.6c-4,9.8-12.6,15.9-16.4,26-4.5,12.4.7,24.2,12.7,29.2.4-3,1.4-5.9,3-8.4l-10-1.3c-.3-.5-1.2-2.4-1.5-2.6-.7-.4-2,.2-2.1-1.5,0-2.2,3-2.3,3.2-.2s-.5.9-.4,1.4,1.2,1.5,1.3,2.2l9.9,1.2,3.4-4.3c-1.8,0-3.7-.2-5.4-.7-.9-.3-1.8-.9-2.6-1.2-1.4-.4-3.2-.3-4.6-.8l-2.6-5.1c-3.9-.1-1.6-5,.5-2.9,1.2,1.1-.2,1.9,0,2.5s2.3,4.5,2.4,4.7,3,.7,3.2.6c-3.8-4.7-4-12-1.8-17.4l-.2,4.6,4.6-4.9c.2-.4,1.2-5.6,1.1-5.9,0-.5-1.5-1.1-.6-2.4s4.1.2,2.5,1.9c-.4.4-1.1.4-1.3,1l-1,5.7-5.6,6.2c.2,2.4.5,4.7,1.3,7,.4,0,.4-.2.6-.3.7-.5,6.6-6.4,6.8-6.8s.5-2.2.5-2.4c0-.7-1.8-1.3-.6-2.7s3.4,0,2.6,1.7-1.2.6-1.3.7Z"/>
  <path class="st1" d="M44.1,38.1c1.6-8,0-17.2-5.9-23.1,1.4,9.6-.9,21.8-7.1,29.4-.3.3-2.4,2.2-2.1,2.4,2.8.6,5.4.4,8.2,0,.7-.1,1.3-.4,2-.5s.7-.2.7.2c-5.8,3.2-10.5,8.9-11.5,15.5,5.3-5.9,13.5-6.6,18.9-12.5s5.4-11.3,4-17.3c-1.9,2.6-3.9,4.9-7.1,5.9Z"/>
</svg>